<svg width="27" height="37" viewBox="0 0 27 37" fill="none" xmlns="http://www.w3.org/2000/svg">
<path fill-rule="evenodd" clip-rule="evenodd" d="M8.80766 28.9017V13.4803L15.0626 0.825867H12.6149L7.66037 11.1453L2.65834 0.825867H0.215454L6.53563 13.4803V28.9017H8.80766ZM15.0138 12.0848C15.2345 11.5074 15.5643 10.9973 16.0033 10.5534C16.466 10.071 17.0094 9.69804 17.643 9.43578C18.273 9.17473 18.9481 9.0424 19.6682 9.0424C20.5984 9.0424 21.3815 9.21082 22.0233 9.53804C22.6699 9.86887 23.3604 10.4066 24.1067 11.1573L25.623 9.62105C24.7533 8.7633 23.8504 8.10886 22.9167 7.65894C21.9794 7.21623 20.8938 6.99127 19.6647 6.99127C17.5054 6.99127 15.6889 7.73473 14.2272 9.21924C13.5842 9.87368 13.125 10.575 12.8391 11.3221C12.5567 12.0692 12.3859 12.9004 12.3206 13.8135C12.2648 14.7254 12.2292 16.1053 12.2292 17.9447C12.2292 19.3666 12.2435 20.4361 12.266 21.1639C12.2886 21.8869 12.3645 22.5919 12.4903 23.286C12.6196 23.9729 12.8094 24.5792 13.0669 25.0941C13.322 25.6126 13.7099 26.1359 14.2272 26.6713C15.6889 28.1606 17.5054 28.9004 19.6647 28.9004C20.8938 28.9004 21.9759 28.6827 22.9001 28.2424C23.8148 27.8033 24.7296 27.1477 25.623 26.2707L24.1079 24.7368C23.5859 25.2481 23.1279 25.6487 22.7269 25.9302C22.3259 26.2177 21.8774 26.4403 21.3767 26.6015C20.8808 26.7687 20.3148 26.8481 19.6694 26.8481C18.1828 26.8481 16.9643 26.3453 16.0045 25.3395C15.3496 24.6514 14.9343 23.8334 14.7611 22.8866C14.5938 21.941 14.5013 20.2941 14.5013 17.9459C14.5013 16.3001 14.5369 15.0574 14.5938 14.2141C14.6615 13.3708 14.8015 12.661 15.0138 12.0848ZM0.298462 33.496H26.4808V36.6118H0.298462V33.496Z" fill="white"/>
</svg>
